<svg width="24" height="24" viewBox="0 0 24 24" fill="none" xmlns="http://www.w3.org/2000/svg">
<path d="M20.5535 7.73868C19.6154 6.51617 18.3002 5.63735 16.8117 5.23853L16.2941 7.17038C17.3573 7.45525 18.2967 8.08298 18.9668 8.9562C19.4312 9.5614 19.7481 10.2611 19.899 11L2 11V13L19.899 13C19.7481 13.7389 19.4312 14.4386 18.9668 15.0438C18.2967 15.917 17.3573 16.5448 16.2941 16.8296L16.8117 18.7615C18.3002 18.3627 19.6154 17.4838 20.5535 16.2613C21.4915 15.0388 22 13.5409 22 12C22 10.4591 21.4915 8.96119 20.5535 7.73868Z" fill="currentColor"/>
</svg>
