<svg width="24" height="24" viewBox="0 0 24 24" fill="none" xmlns="http://www.w3.org/2000/svg">
<path fill-rule="evenodd" clip-rule="evenodd" d="M3.44653 7.73868C4.38459 6.51617 5.69983 5.63735 7.18827 5.23853L7.7059 7.17038C6.64274 7.45525 5.70328 8.08298 5.03323 8.9562C4.56885 9.5614 4.25186 10.2611 4.10102 11L22.0001 11V13L4.10101 13C4.25185 13.7389 4.56884 14.4386 5.03323 15.0438C5.70328 15.917 6.64274 16.5448 7.7059 16.8296L7.18827 18.7615C5.69983 18.3627 4.38459 17.4838 3.44653 16.2613C2.50846 15.0388 2 13.5409 2 12C2 10.4591 2.50846 8.96119 3.44653 7.73868Z" fill="currentColor"/>
</svg>
