<svg width="32" height="32" viewBox="0 0 32 32" fill="none" xmlns="http://www.w3.org/2000/svg">
<path fill-rule="evenodd" clip-rule="evenodd" d="M5.33325 4V14.6667C5.33325 18.3486 8.31802 21.3333 11.9999 21.3333H25.1986C25.0557 22.0336 24.8004 22.7092 24.4402 23.3332C23.855 24.3467 23.0135 25.1883 22 25.7734L23.3333 28.0828C24.7522 27.2636 25.9304 26.0854 26.7496 24.6666C27.5687 23.2477 28 21.6382 28 19.9999C28 18.3616 27.5687 16.7521 26.7496 15.3332C25.9304 13.9144 24.7522 12.7362 23.3333 11.917L22 14.2264C23.0135 14.8115 23.855 15.6531 24.4402 16.6666C24.8005 17.2906 25.0557 17.9663 25.1987 18.6667H11.9999C9.79078 18.6667 7.99992 16.8758 7.99992 14.6667V4H5.33325Z" fill="white"/>
</svg>
