<svg width="32" height="32" viewBox="0 0 32 32" fill="none" xmlns="http://www.w3.org/2000/svg">
<path fill-rule="evenodd" clip-rule="evenodd" d="M8.45745 6.47747C10.4578 4.47708 13.1709 3.35327 15.9999 3.35327C18.8289 3.35327 21.542 4.47708 23.5424 6.47747C25.5428 8.47785 26.6666 11.191 26.6666 14.0199V24.6425C26.6666 27.5142 23.7304 29.4503 21.0909 28.3191L16.5251 26.3623C16.1897 26.2186 15.8101 26.2186 15.4747 26.3623L10.9089 28.3191C8.26945 29.4503 5.33325 27.5142 5.33325 24.6425V14.0199C5.33325 11.191 6.45706 8.47785 8.45745 6.47747ZM15.9999 6.01994C13.8782 6.01994 11.8434 6.86279 10.3431 8.36308C8.84277 9.86337 7.99992 11.8982 7.99992 14.0199V24.6425C7.99992 25.5997 8.97865 26.2451 9.85848 25.868L14.4242 23.9113C15.4304 23.48 16.5694 23.48 17.5756 23.9113L22.1414 25.868C23.0212 26.2451 23.9999 25.5997 23.9999 24.6425V14.0199C23.9999 11.8982 23.1571 9.86338 21.6568 8.36308C20.1565 6.86279 18.1217 6.01994 15.9999 6.01994Z" fill="currentColor"/>
<path fill-rule="evenodd" clip-rule="evenodd" d="M11.9999 12.6866C11.9999 10.4775 13.7908 8.68661 15.9999 8.68661C18.2091 8.68661 19.9999 10.4775 19.9999 12.6866C19.9999 14.8957 18.2091 16.6866 15.9999 16.6866C13.7908 16.6866 11.9999 14.8957 11.9999 12.6866ZM15.9999 11.3533C15.2635 11.3533 14.6666 11.9502 14.6666 12.6866C14.6666 13.423 15.2635 14.0199 15.9999 14.0199C16.7363 14.0199 17.3333 13.423 17.3333 12.6866C17.3333 11.9502 16.7363 11.3533 15.9999 11.3533Z" fill="currentColor"/>
</svg>
