<svg width="24" height="24" viewBox="0 0 24 24" fill="none" xmlns="http://www.w3.org/2000/svg">
<path d="M12 13C11.4477 13 11 13.4477 11 14C11 14.5523 11.4477 15 12 15C12.5523 15 13 14.5523 13 14C13 13.4477 12.5523 13 12 13Z" fill="currentColor"/>
<path d="M15 14C15 13.4477 15.4477 13 16 13C16.5523 13 17 13.4477 17 14C17 14.5523 16.5523 15 16 15C15.4477 15 15 14.5523 15 14Z" fill="currentColor"/>
<path d="M8 13C7.44772 13 7 13.4477 7 14C7 14.5523 7.44772 15 8 15C8.55228 15 9 14.5523 9 14C9 13.4477 8.55228 13 8 13Z" fill="currentColor"/>
<path fill-rule="evenodd" clip-rule="evenodd" d="M9 4V5H15V4H17V5C19.7614 5 22 7.23858 22 10V16C22 18.7614 19.7614 21 17 21H7C4.23858 21 2 18.7614 2 16V10C2 7.23858 4.23858 5 7 5V4H9ZM17 7C18.3062 7 19.4175 7.83481 19.8293 9H4.17071C4.58254 7.83481 5.69378 7 7 7H17ZM4 16V11H20V16C20 17.6569 18.6569 19 17 19H7C5.34315 19 4 17.6569 4 16Z" fill="currentColor"/>
</svg>
