<svg width="32" height="32" viewBox="0 0 32 32" fill="none" xmlns="http://www.w3.org/2000/svg">
<path fill-rule="evenodd" clip-rule="evenodd" d="M3 19.6667C3 15.9848 5.98477 13 9.66667 13H13.6667C17.3486 13 20.3333 15.9848 20.3333 19.6667C20.3333 23.3486 17.3486 26.3333 13.6667 26.3333H7.55228C5.87238 28.0132 3 26.8235 3 24.4477V19.6667ZM9.66667 15.6667C7.45753 15.6667 5.66667 17.4575 5.66667 19.6667V24.4477C6.16676 23.9476 6.84504 23.6667 7.55228 23.6667H13.6667C15.8758 23.6667 17.6667 21.8758 17.6667 19.6667C17.6667 17.4575 15.8758 15.6667 13.6667 15.6667H9.66667Z" fill="#4B3425"/>
<path fill-rule="evenodd" clip-rule="evenodd" d="M29.6667 11.6667C29.6667 7.98477 26.6819 5 23 5H17.6667C13.9848 5 11 7.98477 11 11.6667H13.6667C13.6667 9.45753 15.4575 7.66667 17.6667 7.66667H23C25.2091 7.66667 27 9.45753 27 11.6667C27 13.8758 25.2091 15.6667 23 15.6667H21.6667V18.3333H23C26.6819 18.3333 29.6667 15.3486 29.6667 11.6667Z" fill="#4B3425"/>
<path d="M11 19.6667C11 20.403 10.403 21 9.66667 21C8.93029 21 8.33333 20.403 8.33333 19.6667C8.33333 18.9303 8.93029 18.3333 9.66667 18.3333C10.403 18.3333 11 18.9303 11 19.6667Z" fill="#4B3425"/>
<path d="M15 19.6667C15 20.403 14.403 21 13.6667 21C12.9303 21 12.3333 20.403 12.3333 19.6667C12.3333 18.9303 12.9303 18.3333 13.6667 18.3333C14.403 18.3333 15 18.9303 15 19.6667Z" fill="#4B3425"/>
</svg>
