<svg width="32" height="32" viewBox="0 0 32 32" fill="none" xmlns="http://www.w3.org/2000/svg">
<path fill-rule="evenodd" clip-rule="evenodd" d="M2.66663 15.215C2.66663 9.32397 7.44226 4.54834 13.3333 4.54834H18.6666C24.5577 4.54834 29.3333 9.32397 29.3333 15.215C29.3333 21.106 24.5577 25.8817 18.6666 25.8817H9.88558L9.49505 26.2722C6.9752 28.7921 2.66663 27.0074 2.66663 23.4438V15.215ZM13.3333 7.21501C8.91501 7.21501 5.33329 10.7967 5.33329 15.215V23.4438C5.33329 24.6316 6.76948 25.2265 7.60944 24.3866L8.21505 23.781C8.57743 23.4186 9.06892 23.215 9.5814 23.215H18.6666C23.0849 23.215 26.6666 19.6333 26.6666 15.215C26.6666 10.7967 23.0849 7.21501 18.6666 7.21501H13.3333Z" fill="currentColor"/>
<path d="M12 15.215C12 15.9514 11.403 16.5483 10.6666 16.5483C9.93025 16.5483 9.33329 15.9514 9.33329 15.215C9.33329 14.4786 9.93025 13.8817 10.6666 13.8817C11.403 13.8817 12 14.4786 12 15.215Z" fill="currentColor"/>
<path d="M17.3333 15.215C17.3333 15.9514 16.7363 16.5483 16 16.5483C15.2636 16.5483 14.6666 15.9514 14.6666 15.215C14.6666 14.4786 15.2636 13.8817 16 13.8817C16.7363 13.8817 17.3333 14.4786 17.3333 15.215Z" fill="currentColor"/>
<path d="M22.6666 15.215C22.6666 15.9514 22.0697 16.5483 21.3333 16.5483C20.5969 16.5483 20 15.9514 20 15.215C20 14.4786 20.5969 13.8817 21.3333 13.8817C22.0697 13.8817 22.6666 14.4786 22.6666 15.215Z" fill="currentColor"/>
</svg>
