<svg width="24" height="24" viewBox="0 0 24 24" fill="none" xmlns="http://www.w3.org/2000/svg">
<path fill-rule="evenodd" clip-rule="evenodd" d="M3 18C3 16.3431 4.34315 15 6 15H11C12.6569 15 14 16.3431 14 18C14 19.6569 12.6569 21 11 21H6C4.34315 21 3 19.6569 3 18ZM6 17C5.44772 17 5 17.4477 5 18C5 18.5523 5.44772 19 6 19H11C11.5523 19 12 18.5523 12 18C12 17.4477 11.5523 17 11 17H6Z" fill="currentColor"/>
<path fill-rule="evenodd" clip-rule="evenodd" d="M3 8C3 5.23858 5.23858 3 8 3H9C11.7614 3 14 5.23858 14 8V9C14 11.7614 11.7614 14 9 14H8C5.23858 14 3 11.7614 3 9V8ZM8 5C6.34315 5 5 6.34315 5 8V9C5 10.6569 6.34315 12 8 12H9C10.6569 12 12 10.6569 12 9V8C12 6.34315 10.6569 5 9 5H8Z" fill="currentColor"/>
<path fill-rule="evenodd" clip-rule="evenodd" d="M15 13C15 11.3431 16.3431 10 18 10C19.6569 10 21 11.3431 21 13V18C21 19.6569 19.6569 21 18 21C16.3431 21 15 19.6569 15 18V13ZM18 12C17.4477 12 17 12.4477 17 13V18C17 18.5523 17.4477 19 18 19C18.5523 19 19 18.5523 19 18V13C19 12.4477 18.5523 12 18 12Z" fill="currentColor"/>
<path fill-rule="evenodd" clip-rule="evenodd" d="M15 6C15 4.34315 16.3431 3 18 3C19.6569 3 21 4.34315 21 6C21 7.65685 19.6569 9 18 9C16.3431 9 15 7.65685 15 6ZM18 5C17.4477 5 17 5.44772 17 6C17 6.55228 17.4477 7 18 7C18.5523 7 19 6.55228 19 6C19 5.44772 18.5523 5 18 5Z" fill="currentColor"/>
</svg>
