<svg width="32" height="32" viewBox="0 0 32 32" fill="none" xmlns="http://www.w3.org/2000/svg">
<path d="M12 15.9999H20V13.3333L12 13.3333V15.9999Z" fill="currentColor"/>
<path d="M17.3333 21.3334L12 21.3334V18.6667H17.3333L17.3333 21.3334Z" fill="currentColor"/>
<path fill-rule="evenodd" clip-rule="evenodd" d="M12 2.66675C8.31814 2.66675 5.33337 5.65152 5.33337 9.33342V22.6667C5.33337 26.3486 8.31814 29.3334 12 29.3334H20C23.6819 29.3334 26.6667 26.3486 26.6667 22.6667V11.5426C26.6667 9.77444 25.9643 8.07875 24.7141 6.82851L22.5049 4.61937C21.2547 3.36913 19.559 2.66675 17.7909 2.66675H12ZM8.00004 9.33342C8.00004 7.12428 9.7909 5.33341 12 5.33341H17.5027C17.3328 5.99144 17.2891 6.68022 17.379 7.3628C17.5323 8.52681 18.0653 9.60772 18.8955 10.4379C19.7257 11.2681 20.8066 11.8011 21.9706 11.9544C22.6532 12.0442 23.342 12.0005 24 11.8306V22.6667C24 24.8759 22.2092 26.6667 20 26.6667H12C9.7909 26.6667 8.00004 24.8759 8.00004 22.6667V9.33342ZM23.2853 9.26059C23.1505 9.06653 22.9979 8.88351 22.8285 8.71413L20.6193 6.50499C20.4499 6.33558 20.2669 6.18293 20.0728 6.04812C19.9978 6.36252 19.9801 6.69003 20.0229 7.01473C20.0995 7.59674 20.366 8.13719 20.7811 8.55228C21.1962 8.96737 21.7366 9.23389 22.3186 9.31051C22.6434 9.35326 22.9709 9.33557 23.2853 9.26059Z" fill="currentColor"/>
</svg>
