<svg width="24" height="24" viewBox="0 0 24 24" fill="none" xmlns="http://www.w3.org/2000/svg">
<path fill-rule="evenodd" clip-rule="evenodd" d="M10 4C5.58172 4 2 7.58172 2 12C2 16.4183 5.58172 20 10 20H14C18.4183 20 22 16.4183 22 12C22 7.58172 18.4183 4 14 4H10ZM7.05945 6.76875C7.92841 6.27925 8.93159 6 10 6H14C15.0684 6 16.0716 6.27925 16.9405 6.76875C16.8795 7.16082 16.7719 7.54515 16.6194 7.91342C16.3681 8.52005 15.9998 9.07124 15.5355 9.53553C15.0712 9.99983 14.52 10.3681 13.9134 10.6194C13.3068 10.8707 12.6566 11 12 11C11.3434 11 10.6932 10.8707 10.0866 10.6194C9.47995 10.3681 8.92876 9.99983 8.46447 9.53553C8.00017 9.07124 7.63188 8.52004 7.3806 7.91342C7.22806 7.54515 7.12046 7.16082 7.05945 6.76875ZM5.35522 8.20156C4.50821 9.23606 4 10.5587 4 12C4 15.3137 6.68629 18 10 18H14C17.3137 18 20 15.3137 20 12C20 10.5587 19.4918 9.23606 18.6448 8.20156C18.5915 8.3625 18.5322 8.52169 18.4672 8.67878C18.1154 9.52806 17.5998 10.2997 16.9497 10.9497C16.2997 11.5998 15.5281 12.1154 14.6788 12.4672C13.8295 12.8189 12.9193 13 12 13C11.0807 13 10.1705 12.8189 9.32122 12.4672C8.47194 12.1154 7.70026 11.5998 7.05025 10.9497C6.40024 10.2997 5.88463 9.52806 5.53284 8.67878C5.46777 8.52169 5.40854 8.3625 5.35522 8.20156Z" fill="currentColor"/>
</svg>
