<svg width="32" height="32" viewBox="0 0 32 32" fill="none" xmlns="http://www.w3.org/2000/svg">
<path d="M16.0005 5.33341C15.2641 5.33341 14.6672 5.93037 14.6672 6.66675C14.6672 8.92397 11.9382 10.0527 10.3431 8.45757C9.82237 7.93688 8.97816 7.93688 8.45745 8.45757C7.93676 8.97828 7.93676 9.82249 8.45745 10.3432C10.0529 11.9386 8.92308 14.6667 6.66663 14.6667C5.93025 14.6667 5.33329 15.2637 5.33329 16.0001C5.33329 16.7365 5.93024 17.3334 6.66663 17.3334C8.92287 17.3334 10.0531 20.0614 8.45752 21.6569C7.93681 22.1775 7.93681 23.0218 8.45752 23.5425C8.97821 24.0633 9.82244 24.0633 10.3431 23.5425C11.9384 21.9471 14.6672 23.0763 14.6672 25.3334C14.6672 26.0698 15.2641 26.6667 16.0005 26.6667C16.7369 26.6667 17.3338 26.0698 17.3338 25.3334C17.3338 23.0781 20.061 21.9467 21.6568 23.5425C22.1774 24.0633 23.0217 24.0633 23.5424 23.5425C24.0632 23.0218 24.0632 22.1775 23.5424 21.6569C21.9469 20.0614 23.077 17.3334 25.3333 17.3334C26.0697 17.3334 26.6666 16.7365 26.6666 16.0001C26.6666 15.2637 26.0697 14.6667 25.3333 14.6667C23.0769 14.6667 21.947 11.9386 23.5425 10.3432C24.0632 9.82249 24.0632 8.97828 23.5425 8.45757C23.0217 7.93688 22.1776 7.93688 21.6569 8.45757C20.0613 10.0532 17.3338 8.92236 17.3338 6.66675C17.3338 5.93037 16.7369 5.33341 16.0005 5.33341ZM12.0114 6.36995C12.1632 4.29941 13.8912 2.66675 16.0005 2.66675C18.1096 2.66675 19.8373 4.29892 19.9896 6.36901C21.5612 5.01308 23.9369 5.08072 25.4281 6.57196C26.9194 8.06336 26.987 10.4395 25.6305 12.011C27.7009 12.163 29.3333 13.8909 29.3333 16.0001C29.3333 18.1093 27.7009 19.8371 25.6305 19.9891C26.9869 21.5607 26.9194 23.9367 25.428 25.4281C23.9368 26.9194 21.5612 26.987 19.9896 25.6311C19.8373 27.7013 18.1096 29.3334 16.0005 29.3334C13.8912 29.3334 12.1632 27.7007 12.0114 25.6302C10.4399 26.987 8.06345 26.9197 6.57189 25.4281C5.08051 23.9367 5.013 21.5606 6.36937 19.9891C4.29905 19.8371 2.66663 18.1093 2.66663 16.0001C2.66663 13.8909 4.29904 12.1631 6.36936 12.011C5.01293 10.4395 5.08043 8.06337 6.57184 6.57196C8.06341 5.08039 10.4399 5.01305 12.0114 6.36995ZM16 13.3334C14.5272 13.3334 13.3333 14.5273 13.3333 16.0001C13.3333 17.4729 14.5272 18.6667 16 18.6667C17.4728 18.6667 18.6666 17.4729 18.6666 16.0001C18.6666 14.5273 17.4728 13.3334 16 13.3334ZM10.6666 16.0001C10.6666 13.0546 13.0544 10.6667 16 10.6667C18.9454 10.6667 21.3333 13.0546 21.3333 16.0001C21.3333 18.9455 18.9454 21.3334 16 21.3334C13.0544 21.3334 10.6666 18.9455 10.6666 16.0001Z" fill="currentColor"/>
</svg>
