<svg width="24" height="24" viewBox="0 0 24 24" fill="none" xmlns="http://www.w3.org/2000/svg">
<path fill-rule="evenodd" clip-rule="evenodd" d="M8 9.08296V7C8 5.93913 8.42143 4.92172 9.17157 4.17157C9.92172 3.42143 10.9391 3 12 3C13.0609 3 14.0783 3.42143 14.8284 4.17157C15.5786 4.92172 16 5.93913 16 7V9.08296C18.8377 9.55904 21 12.027 21 15C21 18.3137 18.3137 21 15 21H9C5.68629 21 3 18.3137 3 15C3 12.027 5.16229 9.55904 8 9.08296ZM9 11C6.79086 11 5 12.7909 5 15C5 17.2091 6.79086 19 9 19H15C17.2091 19 19 17.2091 19 15C19 12.7909 17.2091 11 15 11H9ZM9 15C9 13.3431 10.3431 12 12 12C13.6569 12 15 13.3431 15 15C15 16.6569 13.6569 18 12 18C10.3431 18 9 16.6569 9 15ZM12 14C11.4477 14 11 14.4477 11 15C11 15.5523 11.4477 16 12 16C12.5523 16 13 15.5523 13 15C13 14.4477 12.5523 14 12 14ZM12 5C11.4696 5 10.9609 5.21071 10.5858 5.58579C10.2107 5.96086 10 6.46957 10 7V9H14V7C14 6.46957 13.7893 5.96086 13.4142 5.58579C13.0391 5.21071 12.5304 5 12 5Z" fill="currentColor"/>
</svg>
