<svg width="24" height="24" viewBox="0 0 24 24" fill="none" xmlns="http://www.w3.org/2000/svg">
<path d="M19.5981 9.5C19.9283 10.0719 20.0605 10.7368 19.9743 11.3916C19.9311 11.7202 19.834 12.0371 19.6889 12.3303C18.5938 11.3463 17.3382 10.5542 15.9749 9.98954C14.3977 9.33623 12.7072 8.99998 11 8.99998C9.29282 8.99998 7.60235 9.33623 6.02512 9.98954C4.44789 10.6429 3.01478 11.6004 1.80762 12.8076L3.22183 14.2218C4.24327 13.2004 5.4559 12.3901 6.79049 11.8373C8.12507 11.2845 9.55546 11 11 11C12.4445 11 13.8749 11.2845 15.2095 11.8373C16.3209 12.2976 17.3477 12.9365 18.2499 13.7272C17.9795 13.8511 17.6904 13.935 17.3916 13.9743C16.7368 14.0605 16.0719 13.9283 15.5 13.5981L14.5 15.3301C15.4532 15.8805 16.5614 16.1009 17.6526 15.9572C18.7439 15.8136 19.7573 15.3138 20.5355 14.5355C21.3138 13.7572 21.8136 12.7439 21.9572 11.6526C22.1009 10.5614 21.8805 9.45321 21.3301 8.5L19.5981 9.5Z" fill="currentColor"/>
</svg>
