<svg width="32" height="32" viewBox="0 0 32 32" fill="none" xmlns="http://www.w3.org/2000/svg">
<path fill-rule="evenodd" clip-rule="evenodd" d="M13.3333 4C8.17868 4 4 8.17868 4 13.3333C4 18.488 8.17868 22.6667 13.3333 22.6667C15.4297 22.6667 17.3647 21.9755 18.9228 20.8086L27.0572 28.9431L28.9428 27.0575L20.8084 18.923C21.9754 17.3649 22.6667 15.4298 22.6667 13.3333C22.6667 8.17868 18.488 4 13.3333 4ZM6.66667 13.3333C6.66667 9.65143 9.65143 6.66667 13.3333 6.66667C17.0152 6.66667 20 9.65143 20 13.3333C20 17.0152 17.0152 20 13.3333 20C9.65143 20 6.66667 17.0152 6.66667 13.3333Z" fill="#4B3425"/>
</svg>
