<svg width="24" height="24" viewBox="0 0 24 24" fill="none" xmlns="http://www.w3.org/2000/svg">
<path d="M4.40193 9.5C4.07173 10.0719 3.93947 10.7368 4.02567 11.3916C4.06894 11.7202 4.16604 12.0371 4.31109 12.3303C5.40619 11.3463 6.66182 10.5542 8.02513 9.98954C9.60236 9.33623 11.2928 8.99998 13 8.99998C14.7072 8.99998 16.3977 9.33623 17.9749 9.98954C19.5521 10.6429 20.9852 11.6004 22.1924 12.8076L20.7782 14.2218C19.7567 13.2004 18.5441 12.3901 17.2095 11.8373C15.875 11.2845 14.4446 11 13 11C11.5555 11 10.1251 11.2845 8.7905 11.8373C7.67913 12.2976 6.65233 12.9365 5.75009 13.7272C6.02049 13.8511 6.30959 13.935 6.60843 13.9743C7.26318 14.0605 7.92808 13.9283 8.50001 13.5981L9.50001 15.3301C8.5468 15.8805 7.43863 16.1009 6.34738 15.9572C5.25612 15.8136 4.24277 15.3138 3.46447 14.5355C2.68618 13.7572 2.18645 12.7439 2.04278 11.6526C1.89912 10.5614 2.11954 9.45321 2.66988 8.5L4.40193 9.5Z" fill="currentColor"/>
</svg>
