<svg width="24" height="24" viewBox="0 0 24 24" fill="none" xmlns="http://www.w3.org/2000/svg">
<path fill-rule="evenodd" clip-rule="evenodd" d="M4 12C4 14.1217 4.84285 16.1566 6.34315 17.6569C7.84344 19.1571 9.87827 20 12 20C14.1217 20 16.1566 19.1571 17.6569 17.6569C19.1571 16.1566 20 14.1217 20 12H22C22 14.6522 20.9464 17.1957 19.0711 19.0711C17.1957 20.9464 14.6522 22 12 22C9.34784 22 6.8043 20.9464 4.92893 19.0711C3.05357 17.1957 2 14.6522 2 12H4Z" fill="currentColor"/>
<path d="M7.3806 5.08658C7.12933 5.69321 7 6.34339 7 7H9C9 6.60604 9.0776 6.21593 9.22836 5.85195C9.37913 5.48797 9.6001 5.15726 9.87868 4.87868C10.1573 4.6001 10.488 4.37913 10.8519 4.22836C10.9008 4.20811 10.9502 4.18918 11 4.17157L11 16H13L13 4.17157C13.0498 4.18918 13.0992 4.20811 13.1481 4.22836C13.512 4.37913 13.8427 4.6001 14.1213 4.87868C14.3999 5.15726 14.6209 5.48797 14.7716 5.85195C14.9224 6.21593 15 6.60603 15 7H17C17 6.34339 16.8707 5.69321 16.6194 5.08658C16.3681 4.47996 15.9998 3.92876 15.5355 3.46447C15.0712 3.00017 14.52 2.63188 13.9134 2.3806C13.3068 2.12933 12.6566 2 12 2C11.3434 2 10.6932 2.12933 10.0866 2.3806C9.47996 2.63188 8.92876 3.00017 8.46447 3.46447C8.00017 3.92876 7.63188 4.47996 7.3806 5.08658Z" fill="currentColor"/>
</svg>
