<svg width="32" height="32" viewBox="0 0 32 32" fill="none" xmlns="http://www.w3.org/2000/svg">
<path fill-rule="evenodd" clip-rule="evenodd" d="M16 18.6667C14.9495 18.6667 13.9092 18.8736 12.9386 19.2756C11.968 19.6777 11.0861 20.2669 10.3432 21.0099C9.60032 21.7527 9.01104 22.6345 8.609 23.6052C8.20696 24.5759 8.00004 25.6161 8.00004 26.6667H5.33337C5.33337 25.2659 5.60928 23.8788 6.14532 22.5847C6.68137 21.2905 7.46708 20.1147 8.45757 19.1241C9.44807 18.1337 10.6239 17.348 11.9181 16.812C13.2122 16.2759 14.5992 16 16 16C17.4008 16 18.7879 16.2759 20.082 16.812C21.3762 17.348 22.552 18.1337 23.5426 19.1241C24.533 20.1147 25.3187 21.2905 25.8547 22.5847C26.3908 23.8788 26.6667 25.2659 26.6667 26.6667H24C24 25.6161 23.7931 24.5759 23.3911 23.6052C22.9891 22.6345 22.3998 21.7527 21.6568 21.0099C20.914 20.2669 20.0322 19.6777 19.0615 19.2756C18.0908 18.8736 17.0506 18.6667 16 18.6667Z" fill="currentColor"/>
<path fill-rule="evenodd" clip-rule="evenodd" d="M9.33337 11.9999C9.33337 8.31803 12.3181 5.33325 16 5.33325C19.6819 5.33325 22.6667 8.31803 22.6667 11.9999C22.6667 15.6818 19.6819 18.6666 16 18.6666C12.3181 18.6666 9.33337 15.6818 9.33337 11.9999ZM16 7.99992C13.7908 7.99992 12 9.79079 12 11.9999C12 14.2091 13.7908 15.9999 16 15.9999C18.2092 15.9999 20 14.2091 20 11.9999C20 9.79079 18.2092 7.99992 16 7.99992Z" fill="currentColor"/>
</svg>
